<svg width="200" height="64" viewBox="0 0 200 64" fill="none" xmlns="http://www.w3.org/2000/svg">
  <path fill-rule="evenodd" clip-rule="evenodd"
    d="M44.5259 18.1756L44.4681 2H35.4421L35.4999 18.1756L40.0129 24.3725L44.5259 18.1756ZM35.4999 45.8982V62.1315H44.5259V45.8982L40.0129 39.7013L35.4999 45.8982Z"
    fill="white" />
  <path fill-rule="evenodd" clip-rule="evenodd"
    d="M44.5259 45.8983L54.033 59.0139L61.3077 53.7214L51.8006 40.6059L44.5259 38.258V45.8983ZM35.4999 18.1756L25.9351 5.06006L18.6604 10.3525L28.1675 23.4584L35.4999 25.8063V18.1756Z"
    fill="#00F2E6" />
  <path fill-rule="evenodd" clip-rule="evenodd"
    d="M28.1674 23.468L12.7713 18.4739L10 27.0091L25.3961 32.061L32.6708 29.6553L28.1674 23.468ZM47.2875 34.4089L51.8005 40.6058L67.1966 45.5999L69.9679 37.0647L54.5718 32.0706L47.2875 34.4089Z"
    fill="#00B9F1" />
  <path fill-rule="evenodd" clip-rule="evenodd"
    d="M54.5622 32.0705L69.9583 27.0186L67.187 18.4834L51.7909 23.4775L47.2779 29.6745L54.5622 32.0705ZM25.3961 32.0705L10 37.0646L12.7713 45.5998L28.1674 40.6057L32.6804 34.4088L25.3961 32.0705Z"
    fill="#D63AFF" />
  <path fill-rule="evenodd" clip-rule="evenodd"
    d="M28.1675 40.6059L18.6604 53.7214L25.9351 59.0139L35.4999 45.8983V38.258L28.1675 40.6059ZM51.8006 23.4681L61.3077 10.3525L54.033 5.06006L44.5259 18.166V25.8063L51.8006 23.4681Z"
    fill="#FB015B" />
  <path fill-rule="evenodd" clip-rule="evenodd"
    d="M103.637 17.3287V38.3733C103.637 43.0018 99.846 46.7931 95.2175 46.7931V42.5784C97.5654 42.5784 99.4322 40.7116 99.4322 38.3637V17.3287H103.637ZM180.502 21.5434H190V17.3384H166.848V21.5434H176.288V46.8027H180.502V21.5434ZM154.156 17.3287V38.3733C154.156 40.7212 152.289 42.588 149.941 42.588C147.593 42.588 145.726 40.7212 145.726 38.3733V25.7485C145.726 21.12 141.935 17.3287 137.307 17.3287C132.678 17.3287 128.887 21.12 128.887 25.7485V38.3829C128.887 40.7309 127.02 42.5976 124.672 42.5976C122.324 42.5976 120.458 40.7309 120.458 38.3829V17.3287H116.243V38.3733C116.243 43.0018 120.034 46.7931 124.663 46.7931C129.291 46.7931 133.082 43.0018 133.082 38.3733V25.7485C133.082 23.4006 134.949 21.5338 137.297 21.5338C139.645 21.5338 141.512 23.4006 141.512 25.7485V38.3829C141.512 43.0114 145.303 46.8027 149.932 46.8027C154.56 46.8027 158.351 43.0114 158.351 38.3829V17.3287H154.156Z"
    fill="white" />
</svg>